<svg xmlns="http://www.w3.org/2000/svg" width="32" height="32"><path fill="#afb1b8" d="M8.078 20.448a.431.431 0 0 1 .111.295c.004.07-.01.14-.039.204s-.075.122-.132.168a.793.793 0 0 1-.499.136h-.877v-1.869h.859c.17-.01.338.034.476.124.055.042.099.096.128.157s.042.127.038.193a.408.408 0 0 1-.1.286.476.476 0 0 1-.261.146.506.506 0 0 1 .296.16zm-1.029-.282h.367a.367.367 0 0 0 .233-.062c.028-.023.049-.051.063-.083s.019-.066.016-.1c.003-.034-.003-.068-.016-.099s-.034-.06-.061-.083a.38.38 0 0 0-.24-.063H7.05v.49zm.637.717c.029-.023.053-.053.068-.086s.022-.069.019-.104a.224.224 0 0 0-.089-.191.403.403 0 0 0-.249-.068H7.05v.514h.39a.405.405 0 0 0 .246-.065zM9.833 21.252l-.478-.73h-.18v.73h-.411v-1.869h.778a.812.812 0 0 1 .542.159.556.556 0 0 1 .058.773.645.645 0 0 1-.371.19l.509.747h-.447zm-.657-.985h.336c.233 0 .35-.094.35-.283.002-.039-.004-.077-.019-.113s-.038-.069-.067-.097a.392.392 0 0 0-.264-.076h-.34l.004.569zM12.079 20.876h-.819l-.145.376h-.431l.752-1.848h.466l.749 1.848h-.431l-.142-.376zm-.11-.283-.299-.789-.299.789h.598zM14.89 21.252h-.408l-.914-1.271v1.271h-.407v-1.869h.407l.914 1.278v-1.278h.408v1.869zM17.217 20.804a.852.852 0 0 1-.369.33 1.295 1.295 0 0 1-.573.118h-.726v-1.869h.726a1.32 1.32 0 0 1 .573.115.838.838 0 0 1 .369.326c.084.152.128.32.128.49s-.044.338-.128.49zm-.466-.044c.116-.124.18-.282.18-.446s-.064-.322-.18-.446a.753.753 0 0 0-.511-.159h-.283v1.21h.283a.75.75 0 0 0 .511-.159zM12.334 8.986s5.264 1.82 5.153 4.453v4.454s-5.261-1.821-5.151-4.454l-.002-4.453zM22.177 16.851a7.639 7.639 0 0 1 3.345-1.129v-1.394c-1.383.488-2.557 1.373-3.345 2.523z"/><path fill="#afb1b8" d="M21.579 17.271c.814-1.5 2.225-2.658 3.942-3.235v-4.018s-7.497 2.592-7.339 6.342v6.341s.334-.116.86-.333c0-.203 0-.407.024-.613.155-1.741 1.059-3.354 2.513-4.485z"/><path fill="#afb1b8" d="M20.866 19.627c.039-.44.127-.875.262-1.298-.905.977-1.454 2.189-1.568 3.465-.011.12-.017.241-.02.365.426-.187.921-.421 1.442-.696a6.028 6.028 0 0 1-.117-1.836zM21.165 19.649a5.732 5.732 0 0 0 .093 1.663c2.048-1.122 4.35-2.856 4.261-4.952v-.183c-1.463.15-2.833.736-3.897 1.667a5.828 5.828 0 0 0-.457 1.804z"/></svg>