<svg xmlns="http://www.w3.org/2000/svg" width="32" height="32"><path fill="#afb1b8" d="M16.128 15.218a.89.89 0 0 1-.183-.6v-.87c0-.267.061-.47.182-.608s.329-.208.624-.207c.277 0 .473.059.59.177a.721.721 0 0 1 .174.521v.205h-.495v-.207a1.061 1.061 0 0 0-.014-.203.193.193 0 0 0-.071-.12.286.286 0 0 0-.179-.047.303.303 0 0 0-.189.05.233.233 0 0 0-.082.133.972.972 0 0 0-.019.215v1.056a.536.536 0 0 0 .064.297c.025.031.059.056.099.072s.084.021.128.017a.268.268 0 0 0 .175-.048.22.22 0 0 0 .074-.128c.012-.07.017-.141.015-.212v-.214h.495v.196a.795.795 0 0 1-.171.547c-.114.129-.308.194-.593.194s-.5-.069-.623-.213zM18.191 15.226c-.125-.136-.188-.333-.188-.594v-.916c0-.259.063-.454.188-.587s.334-.199.628-.198c.291 0 .499.066.625.198s.189.329.189.587v.916c0 .259-.064.457-.191.593s-.334.205-.623.205c-.288 0-.502-.069-.628-.204zm.858-.219a.507.507 0 0 0 .059-.271v-1.121a.5.5 0 0 0-.058-.266c-.025-.032-.06-.057-.101-.073s-.086-.021-.131-.016c-.044-.005-.09 0-.131.016s-.076.041-.102.073a.48.48 0 0 0-.059.266v1.126a.507.507 0 0 0 .059.271.341.341 0 0 0 .462 0v-.005zM20.227 12.958h.533l.401 1.689.41-1.689h.519l.052 2.438h-.384l-.041-1.695-.396 1.695h-.308l-.41-1.701-.038 1.701h-.388l.048-2.438zM22.741 12.958h.831c.479 0 .718.231.718.692 0 .442-.252.663-.756.662h-.283v1.084h-.513l.003-2.438zm.71 1.042a.384.384 0 0 0 .282-.077.393.393 0 0 0 .074-.275.75.75 0 0 0-.025-.221c-.007-.024-.02-.047-.038-.067s-.04-.037-.065-.049a.537.537 0 0 0-.229-.039h-.199v.729h.199zM25.029 12.958h.551l.565 2.438h-.478l-.112-.562h-.491l-.115.562h-.485l.565-2.438zm.471 1.594-.192-1.023-.192 1.023h.384zM26.601 12.958h.359l.687 1.391v-1.391h.426v2.438h-.342l-.691-1.452v1.452h-.44l.001-2.438zM29.07 14.467l-.571-1.505h.481l.349.967.327-.967h.471l-.564 1.505v.93h-.492v-.93zM16.92 16.462v.128h-.418v.991h-.175v-.991h-.42v-.128h1.014zM18.232 17.581h-.135a.057.057 0 0 1-.038-.011.058.058 0 0 1-.023-.026l-.121-.266h-.58l-.121.266a.078.078 0 0 1-.018.03.07.07 0 0 1-.038.011h-.135l.513-1.118h.178l.519 1.114zm-.849-.415h.484l-.205-.455a.825.825 0 0 1-.038-.105l-.019.059-.018.047-.203.454zM19.116 17.471h.096a.621.621 0 0 0 .156-.033l.069-.027v-.252h-.205c-.005 0-.01 0-.015-.002l-.013-.007-.008-.009a.014.014 0 0 1-.002-.011v-.086h.398v.429a.714.714 0 0 1-.217.091.928.928 0 0 1-.128.023c-.05.005-.1.007-.15.007a.75.75 0 0 1-.258-.042.62.62 0 0 1-.205-.117.537.537 0 0 1-.132-.177.592.592 0 0 1-.001-.466c.029-.066.075-.127.132-.177s.128-.09.205-.116a.982.982 0 0 1 .54-.004.626.626 0 0 1 .192.102l-.049.069c-.004.006-.01.012-.017.015s-.015.006-.023.006a.062.062 0 0 1-.032-.009.513.513 0 0 1-.05-.027.62.62 0 0 0-.293-.065.599.599 0 0 0-.198.031.431.431 0 0 0-.151.089.38.38 0 0 0-.095.139.521.521 0 0 0 0 .373.443.443 0 0 0 .253.23.577.577 0 0 0 .203.022zM20.751 17.453h.56v.128h-.731v-1.118h.175l-.004.991zM21.893 17.581h-.175v-1.118h.175v1.118zM22.545 16.468a.09.09 0 0 1 .027.02l.75.843a.267.267 0 0 1 0-.04V16.458h.153v1.123h-.088a.082.082 0 0 1-.038-.006.12.12 0 0 1-.028-.021l-.749-.842V17.582h-.147v-1.118h.091c.01 0 .02.002.029.005zM24.766 16.462v.123h-.622v.369h.504v.119h-.504v.382h.622v.123h-.802v-1.116h.802zM6.388 9.556l7.787 1.909v6.689l-7.787-1.908v-6.69zm-.499-.57v7.585l8.785 2.154v-7.584L5.889 8.986z"/><path fill="#afb1b8" d="m10.597 22.247-8.786-2.156v-7.584l8.786 2.155v7.585zM6.035 9.47l7.686 1.885-3.268 2.823-7.687-1.886 3.27-2.822zm-.146-.484-4.078 3.52 8.786 2.155 4.077-3.52-8.785-2.155zM11.092 21.82l3.582-3.094-3.582-.879v3.973z"/></svg>