<svg xmlns="http://www.w3.org/2000/svg" width="32" height="32"><path fill="#2196f3" d="M7.289 13.314h-.001c-.724 0-1.311.522-1.311 1.165v.001c0 .643.587 1.165 1.311 1.165h.001c.724 0 1.311-.522 1.311-1.165v-.001c0-.643-.587-1.165-1.311-1.165zM16.965 12.942c-.002-.894-.402-1.75-1.113-2.382s-1.675-.988-2.68-.99c-1.006.002-1.97.357-2.681.989s-1.112 1.489-1.114 2.383v4.928s7.587-.751 7.588-4.927v-.001zM3.321 19.487c.002.622.28 1.218.775 1.657s1.165.688 1.865.689c.699-.002 1.37-.25 1.864-.689s.773-1.035.775-1.657v-3.429s-5.28.523-5.28 3.428zm2.639.614c-.137 0-.27-.036-.384-.104s-.202-.163-.255-.276c-.052-.112-.066-.236-.039-.355s.093-.229.189-.315a.762.762 0 0 1 .753-.133c.126.047.234.125.31.226a.567.567 0 0 1 .065.577.605.605 0 0 1-.15.2c-.064.057-.141.103-.225.134s-.174.047-.265.047V20.1zM11.296 19.763h-.509v.526h-.265v-1.288h.838v.215h-.573v.333h.509v.214zm1.275-.089c0 .127-.022.238-.067.333a.508.508 0 0 1-.48.299.508.508 0 0 1-.481-.296.765.765 0 0 1-.07-.329v-.064c0-.127.023-.238.068-.334a.508.508 0 0 1 .481-.3c.108 0 .203.026.286.078.084.051.148.125.194.222s.069.207.069.333v.057zm-.269-.058c0-.135-.024-.238-.072-.308s-.117-.105-.207-.105c-.089 0-.158.035-.206.104s-.073.17-.073.304v.063c0 .131.024.233.072.306s.118.109.209.109c.089 0 .157-.035.205-.104s.072-.172.072-.306v-.063zm1.13.335c0-.05-.018-.088-.053-.115s-.099-.055-.191-.085a1.428 1.428 0 0 1-.218-.088c-.146-.079-.219-.185-.219-.319 0-.07.019-.131.058-.186s.096-.098.169-.128c.074-.031.156-.046.248-.046s.174.017.246.05a.377.377 0 0 1 .227.348h-.265c0-.059-.019-.105-.056-.137s-.089-.05-.157-.05c-.065 0-.115.014-.151.042s-.054.063-.054.108c0 .042.021.077.063.105s.105.055.187.08c.151.045.261.102.33.169s.104.151.104.251c0 .111-.042.199-.127.263s-.198.095-.341.095c-.099 0-.189-.018-.271-.054s-.144-.086-.187-.149a.386.386 0 0 1-.064-.219h.266c0 .142.085.213.255.213.063 0 .112-.013.148-.038s.053-.062.053-.108zm1.416-.735h-.394v1.073h-.265v-1.073H13.8v-.215h1.049v.215zm.927.515h-.509v.345h.598v.213h-.863v-1.288h.861v.215h-.596v.307h.509v.208zm.72.086h-.211v.471h-.265V19h.479c.152 0 .269.034.352.102s.124.164.124.287c0 .088-.019.161-.057.22s-.095.105-.172.14l.279.526v.012h-.285l-.241-.471zm-.211-.214h.214c.067 0 .118-.017.155-.05s.055-.081.055-.141c0-.061-.017-.108-.052-.143s-.087-.052-.158-.052h-.213v.386zm1.608.232v.454h-.265v-1.288h.502c.097 0 .182.018.255.053a.397.397 0 0 1 .229.373c0 .126-.043.226-.13.299s-.206.109-.358.109h-.233zm0-.215h.237c.07 0 .124-.017.16-.049s.056-.08.056-.142c0-.063-.019-.114-.056-.153s-.088-.059-.154-.06h-.243v.404zm1.679.111h-.509v.345h.598v.213h-.863v-1.288h.861v.215h-.596v.307h.509v.208zm1.231-.515h-.394v1.073h-.265v-1.073h-.389v-.215h1.049v.215zm.927.515h-.509v.345h.598v.213h-.863v-1.288h.861v.215h-.596v.307h.509v.208zm.721.086h-.211v.471h-.265V19h.478c.152 0 .269.034.352.102s.124.164.124.287c0 .088-.019.161-.057.22s-.095.105-.172.14l.279.526v.012h-.285l-.241-.471zm-.212-.214h.214c.067 0 .118-.017.155-.05s.055-.081.055-.141c0-.061-.017-.108-.052-.143s-.087-.052-.158-.052h-.213v.386zm1.559.348c0-.05-.018-.088-.053-.115s-.099-.055-.191-.085a1.428 1.428 0 0 1-.218-.088c-.146-.079-.219-.185-.219-.319 0-.07.019-.131.058-.186s.096-.098.169-.128c.074-.031.156-.046.248-.046s.174.017.246.05a.377.377 0 0 1 .227.348h-.265c0-.059-.019-.105-.056-.137s-.089-.05-.157-.05c-.065 0-.115.014-.151.042s-.054.063-.054.108c0 .042.021.077.063.105s.105.055.187.08c.151.045.261.102.33.169s.103.151.103.251c0 .111-.042.199-.126.263s-.198.095-.34.095c-.099 0-.189-.018-.271-.054s-.144-.086-.187-.149a.386.386 0 0 1-.064-.219h.266c0 .142.085.213.255.213.063 0 .112-.013.148-.038s.053-.062.053-.108z"/></svg>