<svg xmlns="http://www.w3.org/2000/svg" width="32" height="32"><path fill="#afb1b8" d="m11.472 9.057 2.116 2.003-3.927-.002v9.717h10.264V17.06l2.113 2.001V9.058H11.472zm8.36 7.767-5.998-5.679h5.998v5.679zm-1.863 2.529h-6.685v-6.535h.473v6.093h6.212v.442zm-5.106 2.715-.247.509-.247-.509h-.207l.36.678v.395h.187v-.395l.36-.678h-.206zm.31 1.073.087-.25h.416l.088.25h.195l-.406-1.073h-.167l-.405 1.073h.194zm.295-.846.155.445h-.311l.156-.445zm.983.42a.282.282 0 0 0 .054.356c.063.056.149.084.255.084s.198-.029.274-.086l.06.072h.208l-.158-.186a.535.535 0 0 0 .093-.325h-.155a.43.43 0 0 1-.045.197l-.207-.245.073-.053c.052-.037.089-.075.111-.112s.034-.079.034-.124c0-.068-.025-.125-.075-.17s-.114-.069-.192-.069c-.086 0-.155.025-.206.074s-.077.115-.077.199c0 .034.008.07.024.107s.046.082.088.134a.62.62 0 0 0-.16.148zm.485.237a.275.275 0 0 1-.169.06c-.054 0-.096-.015-.128-.046s-.048-.071-.048-.121c0-.057.03-.109.088-.153l.023-.016.234.276zm-.193-.475c-.051-.062-.076-.114-.076-.155 0-.036.01-.066.031-.089s.048-.035.083-.035c.032 0 .059.01.08.03s.032.043.032.072a.132.132 0 0 1-.046.104l-.023.018-.082.056zm1.747.583a.388.388 0 0 0 .127-.268h-.186c-.01.077-.033.131-.07.164s-.092.049-.165.049c-.08 0-.141-.03-.183-.091s-.062-.149-.062-.265v-.095c.001-.114.023-.201.066-.26s.106-.089.187-.089c.07 0 .123.017.158.052s.059.089.068.167h.186c-.012-.117-.054-.208-.126-.273s-.168-.097-.286-.097a.407.407 0 0 0-.387.241.625.625 0 0 0-.054.268v.1c.001.099.02.185.055.26s.085.132.15.173c.065.04.141.06.226.06.122 0 .22-.032.294-.096zm1.096-.151a.668.668 0 0 0 .055-.277v-.06c0-.105-.019-.196-.056-.275s-.089-.14-.157-.181c-.067-.042-.145-.063-.232-.063s-.165.021-.233.064c-.067.042-.12.103-.157.184s-.055.172-.055.277v.06c0 .103.019.193.056.272s.09.139.158.182c.068.042.146.063.233.063s.166-.021.233-.063a.413.413 0 0 0 .156-.183zm-.2-.606a.468.468 0 0 1 .068.273v.056c0 .121-.022.213-.067.276s-.108.094-.19.094-.145-.032-.192-.097-.069-.155-.069-.273v-.062c.001-.115.024-.205.069-.268s.109-.095.189-.095a.22.22 0 0 1 .191.095z"/></svg>